<svg width="170" height="28" viewBox="0 0 170 28" fill="none" xmlns="http://www.w3.org/2000/svg">
<g clip-path="url(#clip0_452_8291)">
<path d="M3.13344 5.88086C3.2956 5.88086 3.44232 5.94693 3.54872 6.05332C3.65511 6.15971 3.72118 6.30643 3.72118 6.46859V21.8038C3.72118 21.9659 3.65511 22.1126 3.54872 22.219C3.44232 22.3254 3.2956 22.3915 3.13344 22.3915H0.587735C0.432435 22.3915 0.290864 22.3306 0.185329 22.2319C0.0712146 22.1246 0 21.9728 0 21.8038V6.46859C0 6.30729 0.0652085 6.16143 0.169885 6.05503C0.274562 5.94864 0.423855 5.88086 0.587735 5.88086H3.13344Z" fill="black"/>
<path d="M74.6723 12.575C73.9661 12.1152 72.3531 11.7805 71.2145 11.7574C69.9412 11.7325 68.4182 12.1829 68.4182 12.1829C68.4182 12.1829 68.4268 11.3009 68.4594 10.4566C68.5101 9.06065 70.5461 8.75091 71.5869 8.7612C72.6396 8.7715 73.8245 9.07695 74.5333 9.29231C74.8627 9.39355 75.1956 9.16447 75.224 8.82126L75.3638 7.10782C75.3784 6.8753 75.2463 6.65394 75.0266 6.56556C73.9901 6.15115 72.7186 5.94265 71.3586 5.92892C70.6242 5.92206 69.278 5.83454 67.9129 6.39654C66.9047 6.81524 65.302 7.86459 65.2831 9.78738C65.2642 11.6613 65.2522 12.9345 65.235 14.612C65.2136 16.7424 65.2179 16.3263 65.2016 18.0285C65.1921 18.9715 65.5911 20.751 66.6602 21.5695C68.0339 22.624 69.3063 22.7227 70.5796 22.7347C71.9635 22.7484 72.9185 22.733 74.088 22.1204C75.5775 21.3387 76.2047 19.8149 76.2579 18.1744C76.305 17.0847 76.2733 16.6068 76.221 15.7128C76.1806 14.8676 76.3153 13.6441 74.6723 12.575ZM72.6843 19.168C72.275 19.7025 71.3432 19.8158 70.6328 19.8089C69.9103 19.802 69.2136 19.6965 68.7537 19.1294C68.2818 18.5734 68.3736 17.9136 68.3831 17.0315C68.3942 15.9419 68.4002 15.2683 68.4002 15.2683C68.4002 15.2683 69.6177 14.7535 70.7563 14.8016C71.4299 14.8325 72.1883 14.8402 72.6491 15.3593C73.1098 15.8664 73.1416 16.3074 73.1321 17.2623C73.1236 18.1195 73.1064 18.6334 72.6843 19.168Z" fill="black"/>
<path d="M63.3303 16.5648C63.338 15.7814 62.9356 14.3691 61.5439 13.9015C61.2024 13.7883 61.0068 13.7248 60.8481 13.723C61.241 13.5798 61.6228 13.3756 62.1419 12.8908C62.649 12.406 62.9013 11.6372 62.9107 10.6694C62.9176 9.98385 62.9133 10.4249 62.9184 9.87317C62.9322 8.4892 62.3316 7.2837 61.1261 6.61017C60.1762 6.08678 58.8678 5.90231 57.6794 5.8903C55.2547 5.86628 53.5584 6.51064 52.8437 6.93192C52.6713 7.04003 52.5717 7.22279 52.582 7.43128L52.6996 9.15931C52.7202 9.52653 53.0977 9.76334 53.4417 9.62006C54.2534 9.28543 55.6417 8.79723 56.9647 8.78522C57.6014 8.77921 58.5194 8.81267 58.9828 9.01345C59.507 9.22709 59.833 9.68355 59.8287 10.1606C59.8356 10.6874 59.8365 10.6016 59.833 10.9319C59.8262 11.6544 59.5671 11.8234 59.332 12.0293C58.9982 12.3202 58.3856 12.4 57.6494 12.4781C57.1835 12.5347 56.0561 12.5973 55.0883 12.6119C54.794 12.6214 54.5589 12.8513 54.5563 13.1456L54.5271 14.8839C54.5246 15.1782 54.7545 15.4253 55.0608 15.4279C55.9059 15.4365 57.0565 15.4725 57.9128 15.566C59.0746 15.6999 60.0759 16.0285 60.0664 16.9955C60.057 17.9504 60.0707 16.5665 60.0561 17.9994C60.0415 19.4322 58.7906 19.6278 56.9295 19.609C55.7172 19.597 54.3264 19.0564 53.5095 18.6815C53.168 18.5313 52.7742 18.7595 52.7459 19.1268L52.5932 20.9741C52.5786 21.1697 52.6747 21.367 52.8334 21.4786C53.4297 21.8638 54.9887 22.7124 57.193 22.7338C58.7725 22.7493 60.7597 22.4138 61.8082 21.6648C62.178 21.3988 63.2908 20.3692 63.3063 18.8016C63.314 18.0182 63.308 18.642 63.3174 17.6501C63.3268 16.7072 63.3217 17.246 63.3286 16.5605L63.3303 16.5648Z" fill="black"/>
<path d="M49.2375 10.1992C48.1779 9.63718 46.9561 9.35575 45.5841 9.34288C43.6742 9.32401 41.8226 9.55052 40.7278 10.0662C40.5313 10.1623 40.4061 10.3691 40.4164 10.5896L40.4961 12.4025C40.5167 12.7698 40.8823 13.0186 41.2263 12.8993C42.1238 12.5656 43.6957 12.128 45.1894 12.1177C46.1933 12.1151 46.7073 12.2181 47.0599 12.418C47.4134 12.617 47.5575 12.8393 47.5524 13.3532C47.5481 13.7822 47.5412 14.4798 47.5412 14.4798C47.5412 14.4798 45.8038 14.3399 44.9586 14.3811C43.8072 14.4429 42.7158 14.5673 41.5095 15.167C40.5125 15.6595 39.7094 16.3742 39.6939 17.9169C39.687 18.6145 39.6853 18.811 39.6776 19.5454C39.6673 20.6231 40.3194 21.4871 41.2212 21.9487C42.2079 22.4481 43.3198 22.7166 45.3773 22.7372C48.1933 22.7655 49.9565 21.6072 50.5245 21.1594C50.6601 21.0624 50.7356 20.9045 50.7373 20.7329L50.8111 13.3C50.8137 11.7813 50.2972 10.7474 49.2375 10.1983V10.1992ZM46.9913 19.3738C46.3872 19.784 45.4803 19.8483 44.7699 19.8543C44.0474 19.8595 43.204 19.6793 42.8891 19.3335C42.6103 19.0366 42.7218 18.9526 42.7261 18.5236C42.7321 17.8989 43.0067 17.4244 43.6459 17.1859C44.2851 16.9354 45.2032 16.944 45.7789 16.938C46.8197 16.9234 47.5533 17.0658 47.5533 17.0658L47.5472 17.6287C47.5361 18.7303 47.5953 18.9637 46.9913 19.3747V19.3738Z" fill="black"/>
<path d="M26.2344 14.648C24.6685 14.449 23.2142 14.177 22.8126 13.9402C22.4111 13.6914 22.4686 12.8591 22.7157 12.5674C23.0752 12.1547 24.6659 12.2559 25.5831 12.3632C26.7449 12.497 27.6612 12.739 28.2352 12.9286C28.5767 13.0418 28.9225 12.8128 28.9628 12.4584L29.1765 10.6969C29.2039 10.4404 29.0589 10.1933 28.8153 10.1057C27.5463 9.63985 26.5939 9.361 24.5244 9.34041C23.6183 9.33183 22.5767 9.41934 21.6303 9.75225C20.1185 10.2765 19.6801 11.325 19.5728 12.2542C19.5196 12.7192 19.4801 12.9509 19.4741 13.5515C19.4638 14.5554 19.6646 15.3662 20.2223 15.8982C20.78 16.4421 22.013 16.8711 23.8963 17.1466C25.572 17.3834 25.9615 17.5833 26.2532 17.7943C26.6548 18.0921 26.6076 19.0959 26.3356 19.3259C25.8912 19.7008 24.8616 19.7763 23.6132 19.6785C22.3648 19.5807 21.046 19.1877 20.2652 18.9226C19.9117 18.7965 19.5419 19.0376 19.5136 19.4048L19.3729 21.2281C19.3583 21.4486 19.4664 21.658 19.6612 21.7575C20.6479 22.2937 22.8109 22.7193 24.5132 22.7365C26.3871 22.7553 27.8594 22.3898 28.6745 21.7C29.6003 20.9252 29.7205 19.9471 29.7333 18.6738C29.7428 17.7068 29.7668 16.5185 29.149 15.8638C28.5424 15.2581 27.8972 14.8591 26.2344 14.6472V14.648Z" fill="black"/>
<path d="M37.4957 19.4425C36.5065 19.7986 35.8672 19.7986 35.4588 19.4167C35.3258 19.2803 35.2666 19.0598 35.2718 18.533L35.3404 12.8907L37.3979 12.9113C37.7163 12.9148 37.9762 12.6599 37.9788 12.3416L38.0097 10.4557C38.0131 10.1494 37.7703 9.89029 37.452 9.88686L35.3447 9.86627L35.343 7.44497C35.3464 7.13866 35.0916 6.87954 34.7853 6.87611L32.3125 6.85123C32.0062 6.8478 31.7471 7.10263 31.7402 7.72726L31.7926 19.4648C31.7874 19.9547 31.6785 21.0675 32.5039 21.7986C33.3293 22.5296 34.4781 22.7741 35.6407 22.7347C36.5605 22.7038 37.1834 22.6214 37.76 22.4215C38.0208 22.3305 38.2285 22.1323 38.219 21.85L38.1521 19.9882C38.1307 19.645 37.8123 19.3292 37.4966 19.4425H37.4957Z" fill="black"/>
<path d="M13.7857 21.7883C13.7822 22.0946 14.0251 22.3786 14.3434 22.3821L16.799 22.3778C17.1053 22.3812 17.3653 22.1144 17.3679 21.7952" fill="black"/>
<path d="M16.3253 10.7483C15.5333 10.0542 14.3922 9.76246 13.4192 9.53938C12.641 9.36092 10.4256 9.3755 9.38914 9.65864C7.56416 10.1571 6.62292 10.7578 6.27715 11.0726C6.16561 11.1816 6.09096 11.3283 6.08924 11.4871L6.08667 21.7746C6.08667 22.0989 6.34922 22.3623 6.6744 22.3623H9.07597C9.40029 22.3623 9.6637 22.0997 9.6637 21.7746C9.6637 21.7746 9.65769 13.8826 9.65769 13.5797C9.65769 12.6977 10.7225 12.4506 11.849 12.4506C12.7071 12.4506 13.7847 12.6977 13.7847 13.6209C13.7847 13.9315 13.7804 21.784 13.7804 21.784C13.7804 22.1083 14.0438 22.3717 14.3682 22.3717H16.786C17.1103 22.3717 17.3738 22.1092 17.3738 21.784C17.3738 21.784 17.3858 13.7084 17.3858 13.2005C17.3858 11.8148 17.0503 11.3815 16.3278 10.7483H16.3253Z" fill="black"/>
<path d="M89.2618 10.9096C89.285 8.50975 88.451 7.57024 87.6376 6.9988C86.6595 6.30468 85.0842 5.90828 83.7079 5.89026C82.3351 5.90742 80.843 6.30468 79.8649 6.9988C79.0515 7.57024 78.2175 8.50975 78.2407 10.9096C78.2536 12.2215 78.2536 16.4146 78.2407 17.7196C78.2175 20.1194 79.0515 21.059 79.8649 21.6304C80.843 22.3245 82.4183 22.7209 83.7946 22.7389C85.1674 22.7218 86.6595 22.3245 87.6376 21.6304C88.451 21.059 89.285 20.1194 89.2618 17.7196C89.2489 16.4137 89.2489 12.2206 89.2618 10.9096ZM85.5183 19.3575C85.1537 19.6999 84.3291 19.8629 83.7517 19.8723C83.1742 19.8629 82.3497 19.699 81.9842 19.3575C81.5784 18.974 81.5457 18.6188 81.5595 17.2348C81.5663 16.5098 81.5663 12.1108 81.5595 11.3935C81.5457 10.0095 81.5784 9.65433 81.9842 9.27081C82.3488 8.92846 83.1734 8.76544 83.7508 8.756C84.3283 8.76544 85.1528 8.92932 85.5183 9.27081C85.9242 9.65433 85.9568 10.0095 85.943 11.3935C85.9362 12.11 85.9362 16.5098 85.943 17.2348C85.9568 18.6188 85.9242 18.974 85.5183 19.3575Z" fill="black"/>
</g>
<path d="M106.823 21.7189C108.308 21.7189 109.505 21.3755 110.413 20.6887C111.321 20.0019 111.775 19.0906 111.775 17.9547C111.775 17.2349 111.607 16.6109 111.27 16.0826C110.933 15.5543 110.431 15.1003 109.764 14.7205C109.098 14.3408 108.117 13.9743 106.823 13.621C105.528 13.2677 104.587 12.8599 103.999 12.3977C103.412 11.9354 103.118 11.3378 103.118 10.6047C103.118 9.81229 103.445 9.17007 104.098 8.67809C104.752 8.18611 105.631 7.94012 106.733 7.94012C107.869 7.94012 108.774 8.23894 109.448 8.83658C110.121 9.43422 110.458 10.225 110.458 11.209H111.686C111.686 10.3967 111.478 9.6604 111.062 9.00002C110.646 8.33965 110.06 7.82455 109.304 7.45474C108.548 7.08493 107.691 6.90002 106.733 6.90002C105.32 6.90002 104.16 7.24507 103.252 7.93517C102.344 8.62526 101.889 9.52172 101.889 10.6246C101.889 11.7604 102.378 12.6783 103.356 13.3783C104.042 13.8736 105.132 14.3309 106.624 14.7503C108.117 15.1696 109.144 15.6121 109.705 16.0776C110.266 16.5432 110.547 17.1755 110.547 17.9746C110.547 18.7934 110.207 19.4505 109.527 19.9458C108.847 20.4411 107.945 20.6887 106.823 20.6887C105.561 20.6887 104.551 20.3948 103.791 19.8071C103.032 19.2194 102.652 18.417 102.652 17.4H101.434C101.434 18.2453 101.653 18.9948 102.093 19.6486C102.532 20.3024 103.176 20.8109 104.024 21.1741C104.873 21.5373 105.806 21.7189 106.823 21.7189ZM117.105 21.7189C117.639 21.7189 118.062 21.6628 118.373 21.5505L118.323 20.5797C117.881 20.6458 117.56 20.6788 117.362 20.6788C116.86 20.6788 116.502 20.5335 116.287 20.2429C116.073 19.9524 115.965 19.5099 115.965 18.9156V11.7736H118.184V10.8029H115.965V8.05899H114.777V10.8029H112.806V11.7736H114.777V18.9255C114.777 19.8434 114.962 20.5385 115.331 21.0106C115.701 21.4828 116.292 21.7189 117.105 21.7189ZM124.781 21.7189C125.713 21.7189 126.541 21.4944 127.268 21.0453C127.994 20.5963 128.557 19.9573 128.957 19.1286C129.356 18.2998 129.556 17.367 129.556 16.3302V16.0826C129.556 14.4316 129.114 13.1059 128.229 12.1054C127.344 11.105 126.188 10.6047 124.762 10.6047C123.837 10.6047 123.01 10.8342 122.28 11.2932C121.551 11.7521 120.986 12.3944 120.586 13.2198C120.187 14.0453 119.987 14.9731 119.987 16.0033V16.2411C119.987 17.892 120.431 19.2177 121.319 20.2182C122.208 21.2187 123.362 21.7189 124.781 21.7189ZM124.781 20.7184C123.705 20.7184 122.835 20.3073 122.171 19.4852C121.508 18.663 121.176 17.6113 121.176 16.3302V16.1123C121.176 14.7717 121.509 13.6871 122.176 12.8583C122.843 12.0295 123.705 11.6151 124.762 11.6151C125.468 11.6151 126.096 11.8017 126.644 12.1748C127.192 12.5479 127.618 13.0746 127.922 13.7547C128.225 14.4349 128.377 15.1845 128.377 16.0033V16.2312C128.377 17.5783 128.045 18.663 127.382 19.4852C126.718 20.3073 125.851 20.7184 124.781 20.7184ZM133.181 21.5208V14.1609C133.399 13.375 133.764 12.7757 134.276 12.363C134.788 11.9503 135.414 11.7439 136.153 11.7439C136.437 11.7439 136.705 11.767 136.956 11.8132L136.985 10.7335C136.794 10.6477 136.533 10.6047 136.203 10.6047C134.816 10.6047 133.809 11.2387 133.181 12.5066L133.162 10.8029H132.003V21.5208H133.181ZM142.978 21.7189C144.636 21.7189 145.9 21.0882 146.772 19.8269L146.029 19.2623C145.633 19.7708 145.192 20.1406 144.707 20.3717C144.221 20.6029 143.662 20.7184 143.028 20.7184C141.971 20.7184 141.094 20.3139 140.398 19.505C139.701 18.696 139.353 17.684 139.353 16.4689V16.2411H147V15.5774C147 14.0387 146.618 12.8253 145.856 11.9371C145.093 11.0488 144.061 10.6047 142.76 10.6047C141.928 10.6047 141.156 10.8408 140.442 11.313C139.729 11.7852 139.173 12.434 138.773 13.2595C138.374 14.0849 138.174 15.0128 138.174 16.0429V16.4689C138.174 17.4661 138.379 18.3658 138.788 19.1682C139.198 19.9705 139.77 20.5963 140.507 21.0453C141.243 21.4944 142.067 21.7189 142.978 21.7189ZM145.821 15.2307H139.392C139.524 14.1279 139.896 13.2496 140.507 12.5958C141.118 11.942 141.869 11.6151 142.76 11.6151C143.658 11.6151 144.385 11.9387 144.939 12.5859C145.494 13.233 145.788 14.0717 145.821 15.1019V15.2307Z" fill="black"/>
<defs>
<clipPath id="clip0_452_8291">
<rect width="89.2619" height="16.8573" fill="white" transform="translate(0 5.88086)"/>
</clipPath>
</defs>
</svg>
